<svg width="223" height="17" viewBox="0 0 223 17" fill="none" xmlns="http://www.w3.org/2000/svg">
<path d="M1.22656 9.65625C0.919271 8.94792 0.765625 8.19531 0.765625 7.39844C0.765625 6.60156 0.919271 5.84896 1.22656 5.14062C1.53385 4.43229 1.94531 3.82031 2.46094 3.30469C2.98177 2.78385 3.59635 2.36979 4.30469 2.0625C5.0026 1.76042 5.75521 1.60938 6.5625 1.60938C7.36458 1.60938 8.11458 1.76042 8.8125 2.0625C9.52604 2.36979 10.138 2.78385 10.6484 3.30469C11.1693 3.83594 11.5807 4.44792 11.8828 5.14062C12.1849 5.83854 12.3359 6.59115 12.3359 7.39844C12.3359 8.20573 12.1849 8.95833 11.8828 9.65625C11.5807 10.349 11.1693 10.9609 10.6484 11.4922C10.138 12.013 9.52604 12.4271 8.8125 12.7344C8.10417 13.0417 7.35417 13.1953 6.5625 13.1953C5.76562 13.1953 5.01302 13.0417 4.30469 12.7344C3.59635 12.4271 2.98177 12.013 2.46094 11.4922C1.94531 10.9766 1.53385 10.3646 1.22656 9.65625ZM2.09375 5.53125C1.83854 6.10938 1.71094 6.73177 1.71094 7.39844C1.71094 8.0651 1.83854 8.69271 2.09375 9.28125C2.34896 9.86979 2.69531 10.3828 3.13281 10.8203C3.57552 11.263 4.09115 11.612 4.67969 11.8672C5.26823 12.1224 5.89583 12.25 6.5625 12.25C7.22917 12.25 7.85156 12.1224 8.42969 11.8672C9.01823 11.612 9.53125 11.263 9.96875 10.8203C10.4062 10.3828 10.7526 9.86979 11.0078 9.28125C11.263 8.69271 11.3906 8.0651 11.3906 7.39844C11.3906 6.73177 11.263 6.10938 11.0078 5.53125C10.7474 4.94271 10.401 4.42708 9.96875 3.98438C9.54167 3.55208 9.02865 3.20312 8.42969 2.9375C7.85156 2.68229 7.22917 2.55469 6.5625 2.55469C5.89583 2.55469 5.26823 2.68229 4.67969 2.9375C4.07552 3.19792 3.5599 3.54688 3.13281 3.98438C2.70052 4.42708 2.35417 4.94271 2.09375 5.53125ZM3.71094 7.39844C3.71094 6.97656 3.79167 6.56771 3.95312 6.17188C4.10938 5.79167 4.32552 5.45833 4.60156 5.17188C4.88802 4.875 5.21094 4.64844 5.57031 4.49219C5.9401 4.33073 6.33333 4.25 6.75 4.25C7.28646 4.25 7.74479 4.36458 8.125 4.59375C8.5 4.82292 8.79427 5.05469 9.00781 5.28906L8.35156 5.86719C8.1901 5.6849 7.98177 5.51823 7.72656 5.36719C7.46094 5.20573 7.13021 5.125 6.73438 5.125C6.10417 5.125 5.60938 5.34115 5.25 5.77344C4.88542 6.21094 4.70312 6.7526 4.70312 7.39844C4.70312 7.71094 4.7526 8.01042 4.85156 8.29688C4.95052 8.58333 5.08594 8.82031 5.25781 9.00781C5.4401 9.20052 5.65104 9.35677 5.89062 9.47656C6.14062 9.59635 6.41667 9.65625 6.71875 9.65625C7.01042 9.65625 7.25781 9.61458 7.46094 9.53125C7.66406 9.44792 7.83594 9.35677 7.97656 9.25781C8.08073 9.1849 8.1849 9.09635 8.28906 8.99219C8.36719 8.91406 8.40885 8.88021 8.41406 8.89062L9.02344 9.47656C8.79427 9.74219 8.49219 9.98958 8.11719 10.2188C7.7474 10.4427 7.29167 10.5547 6.75 10.5547C6.33333 10.5547 5.9375 10.4714 5.5625 10.3047C5.19792 10.1432 4.8776 9.91927 4.60156 9.63281C4.32552 9.34635 4.10938 9.01302 3.95312 8.63281C3.79167 8.23698 3.71094 7.82552 3.71094 7.39844ZM18.3594 4.13281C18.4479 3.84115 18.5911 3.53125 18.7891 3.20312C18.9766 2.89583 19.2083 2.625 19.4844 2.39062C19.7656 2.15104 20.0885 1.96094 20.4531 1.82031C20.8177 1.67969 21.2396 1.60938 21.7188 1.60938C22.2292 1.60938 22.6979 1.69271 23.125 1.85938C23.5417 2.02083 23.8984 2.25 24.1953 2.54688C24.4922 2.83854 24.7214 3.1849 24.8828 3.58594C25.0495 3.99219 25.1328 4.42188 25.1328 4.875C25.1328 5.25 25.0807 5.60156 24.9766 5.92969C24.8776 6.23698 24.763 6.51823 24.6328 6.77344C24.5182 6.9974 24.3906 7.20573 24.25 7.39844L23.9609 7.78125L20.9844 11.75H25.2109V13H18.4219L22.3594 7.78125L22.7656 7.27344C22.9323 7.05469 23.0859 6.82812 23.2266 6.59375C23.3776 6.33854 23.5078 6.06771 23.6172 5.78125C23.7318 5.47917 23.7891 5.17708 23.7891 4.875C23.7891 4.61458 23.7448 4.35938 23.6562 4.10938C23.5677 3.86458 23.4401 3.65104 23.2734 3.46875C23.1016 3.28125 22.888 3.13281 22.6328 3.02344C22.3724 2.91406 22.0729 2.85938 21.7344 2.85938C21.3958 2.85938 21.1068 2.91146 20.8672 3.01562C20.6068 3.13021 20.3906 3.26562 20.2188 3.42188C20.0365 3.58854 19.8906 3.77344 19.7812 3.97656C19.6562 4.20573 19.5677 4.40365 19.5156 4.57031L18.3594 4.13281ZM26.7812 7.39844C26.7812 6.67448 26.862 5.95312 27.0234 5.23438C27.1797 4.54167 27.4245 3.92448 27.7578 3.38281C28.0859 2.85156 28.5078 2.42188 29.0234 2.09375C29.5286 1.77083 30.1406 1.60938 30.8594 1.60938C31.5833 1.60938 32.1953 1.77083 32.6953 2.09375C33.2057 2.42708 33.625 2.85677 33.9531 3.38281C34.276 3.90885 34.5182 4.52604 34.6797 5.23438C34.8307 5.90625 34.9062 6.6276 34.9062 7.39844C34.9062 8.17448 34.8307 8.89844 34.6797 9.57031C34.5234 10.2682 34.2812 10.8828 33.9531 11.4141C33.625 11.9401 33.2057 12.3698 32.6953 12.7031C32.1901 13.0312 31.5781 13.1953 30.8594 13.1953C30.151 13.1953 29.5391 13.0312 29.0234 12.7031C28.5078 12.375 28.0859 11.9453 27.7578 11.4141C27.4245 10.8724 27.1797 10.2578 27.0234 9.57031C26.862 8.85156 26.7812 8.1276 26.7812 7.39844ZM28.2812 5.76562C28.1771 6.32812 28.125 6.8724 28.125 7.39844C28.125 7.92448 28.1771 8.46875 28.2812 9.03125C28.3802 9.57292 28.5365 10.0599 28.75 10.4922C28.9635 10.9297 29.2422 11.2812 29.5859 11.5469C29.9297 11.8125 30.3542 11.9453 30.8594 11.9453C31.3542 11.9453 31.7734 11.8125 32.1172 11.5469C32.4661 11.276 32.7474 10.9245 32.9609 10.4922C33.1745 10.0547 33.3281 9.56771 33.4219 9.03125C33.5156 8.48438 33.5625 7.9401 33.5625 7.39844C33.5625 6.85677 33.5156 6.3125 33.4219 5.76562C33.3281 5.22917 33.1745 4.74219 32.9609 4.30469C32.7526 3.88281 32.4714 3.53385 32.1172 3.25781C31.7734 2.99219 31.3542 2.85938 30.8594 2.85938C30.3542 2.85938 29.9297 2.99219 29.5859 3.25781C29.2422 3.52344 28.9635 3.8724 28.75 4.30469C28.5365 4.73698 28.3802 5.22396 28.2812 5.76562ZM36.3438 4.13281C36.4323 3.84115 36.5755 3.53125 36.7734 3.20312C36.9609 2.89583 37.1927 2.625 37.4688 2.39062C37.75 2.15104 38.0729 1.96094 38.4375 1.82031C38.8021 1.67969 39.224 1.60938 39.7031 1.60938C40.2135 1.60938 40.6823 1.69271 41.1094 1.85938C41.526 2.02083 41.8828 2.25 42.1797 2.54688C42.4766 2.83854 42.7057 3.1849 42.8672 3.58594C43.0339 3.99219 43.1172 4.42188 43.1172 4.875C43.1172 5.25 43.0651 5.60156 42.9609 5.92969C42.862 6.23698 42.7474 6.51823 42.6172 6.77344C42.5026 6.9974 42.375 7.20573 42.2344 7.39844L41.9453 7.78125L38.9688 11.75H43.1953V13H36.4062L40.3438 7.78125L40.75 7.27344C40.9167 7.05469 41.0703 6.82812 41.2109 6.59375C41.362 6.33854 41.4922 6.06771 41.6016 5.78125C41.7161 5.47917 41.7734 5.17708 41.7734 4.875C41.7734 4.61458 41.7292 4.35938 41.6406 4.10938C41.5521 3.86458 41.4245 3.65104 41.2578 3.46875C41.0859 3.28125 40.8724 3.13281 40.6172 3.02344C40.3568 2.91406 40.0573 2.85938 39.7188 2.85938C39.3802 2.85938 39.0911 2.91146 38.8516 3.01562C38.5911 3.13021 38.375 3.26562 38.2031 3.42188C38.0208 3.58854 37.875 3.77344 37.7656 3.97656C37.6406 4.20573 37.5521 4.40365 37.5 4.57031L36.3438 4.13281ZM44.8594 4.13281C44.9479 3.84115 45.0911 3.53125 45.2891 3.20312C45.4766 2.89583 45.7083 2.625 45.9844 2.39062C46.2656 2.15104 46.5885 1.96094 46.9531 1.82031C47.3177 1.67969 47.7396 1.60938 48.2188 1.60938C48.7292 1.60938 49.1979 1.69271 49.625 1.85938C50.0417 2.02083 50.3984 2.25 50.6953 2.54688C50.9922 2.83854 51.2214 3.1849 51.3828 3.58594C51.5495 3.99219 51.6328 4.42188 51.6328 4.875C51.6328 5.25 51.5807 5.60156 51.4766 5.92969C51.3776 6.23698 51.263 6.51823 51.1328 6.77344C51.0182 6.9974 50.8906 7.20573 50.75 7.39844L50.4609 7.78125L47.4844 11.75H51.7109V13H44.9219L48.8594 7.78125L49.2656 7.27344C49.4323 7.05469 49.5859 6.82812 49.7266 6.59375C49.8776 6.33854 50.0078 6.06771 50.1172 5.78125C50.2318 5.47917 50.2891 5.17708 50.2891 4.875C50.2891 4.61458 50.2448 4.35938 50.1562 4.10938C50.0677 3.86458 49.9401 3.65104 49.7734 3.46875C49.6016 3.28125 49.388 3.13281 49.1328 3.02344C48.8724 2.91406 48.5729 2.85938 48.2344 2.85938C47.8958 2.85938 47.6068 2.91146 47.3672 3.01562C47.1068 3.13021 46.8906 3.26562 46.7188 3.42188C46.5365 3.58854 46.3906 3.77344 46.2812 3.97656C46.1562 4.20573 46.0677 4.40365 46.0156 4.57031L44.8594 4.13281ZM58.4062 13V1.79688H59.75L63.6094 8.05469L67.4453 1.79688H68.7422V13H67.3984V4.23438L63.5703 10.4531L59.75 4.25V13H58.4062ZM70.5625 9.30469C70.5625 8.74219 70.6562 8.23177 70.8438 7.77344C71.0417 7.29948 71.3099 6.89062 71.6484 6.54688C72.0026 6.19271 72.4036 5.91667 72.8516 5.71875C73.3151 5.51562 73.8203 5.41406 74.3672 5.41406C74.9141 5.41406 75.4167 5.51562 75.875 5.71875C76.3333 5.92188 76.737 6.19792 77.0859 6.54688C77.4245 6.89062 77.6927 7.29948 77.8906 7.77344C78.0781 8.23177 78.1719 8.74219 78.1719 9.30469C78.1719 9.86198 78.0781 10.3698 77.8906 10.8281C77.6927 11.3125 77.4245 11.724 77.0859 12.0625C76.737 12.4115 76.3333 12.6875 75.875 12.8906C75.4167 13.0938 74.9141 13.1953 74.3672 13.1953C73.8203 13.1953 73.3151 13.0938 72.8516 12.8906C72.4036 12.6927 72.0026 12.4167 71.6484 12.0625C71.3099 11.724 71.0417 11.3125 70.8438 10.8281C70.6562 10.3698 70.5625 9.86198 70.5625 9.30469ZM72.0781 8.28125C71.9635 8.59375 71.9062 8.9349 71.9062 9.30469C71.9062 9.67448 71.9635 10.0156 72.0781 10.3281C72.1927 10.6406 72.3594 10.9219 72.5781 11.1719C72.776 11.401 73.0339 11.5885 73.3516 11.7344C73.6589 11.875 73.9974 11.9453 74.3672 11.9453C74.737 11.9453 75.0755 11.875 75.3828 11.7344C75.7005 11.5885 75.9583 11.401 76.1562 11.1719C76.375 10.9219 76.5417 10.6406 76.6562 10.3281C76.7708 10.0156 76.8281 9.67448 76.8281 9.30469C76.8281 8.9349 76.7708 8.59375 76.6562 8.28125C76.5417 7.96875 76.375 7.6875 76.1562 7.4375C75.9583 7.20833 75.7005 7.02083 75.3828 6.875C75.0807 6.73438 74.7422 6.66406 74.3672 6.66406C73.9974 6.66406 73.6589 6.73438 73.3516 6.875C73.0339 7.02083 72.776 7.20833 72.5781 7.4375C72.3594 7.6875 72.1927 7.96875 72.0781 8.28125ZM79.2344 13L83.4688 6.85938H79.4531V5.60938H85.8359L81.6016 11.75H85.6641V13H79.2344ZM87.5 3.88281C87.3177 3.70052 87.2266 3.48698 87.2266 3.24219C87.2266 2.9974 87.3177 2.78385 87.5 2.60156C87.6823 2.41927 87.8958 2.32812 88.1406 2.32812C88.3854 2.32812 88.599 2.41927 88.7812 2.60156C88.9635 2.78385 89.0547 2.9974 89.0547 3.24219C89.0547 3.48698 88.9635 3.70052 88.7812 3.88281C88.6042 4.0599 88.3906 4.14844 88.1406 4.14844C87.8906 4.14844 87.6771 4.0599 87.5 3.88281ZM87.4688 13V5.60938H88.8125V13H87.4688ZM95.0938 9.73438V8.45312H99.3594V9.73438H95.0938ZM104.5 13L108.906 1.79688H110.148L114.516 13H113.109L111.945 9.97656H107.109L105.945 13H104.5ZM107.609 8.69531H111.445L109.523 3.71875L107.609 8.69531ZM115.953 13V0.90625H117.297V13H115.953ZM119.922 13V0.90625H121.266V13H119.922ZM128.086 13V5.60938H129.336V6.74219C129.424 6.58073 129.539 6.41667 129.68 6.25C129.831 6.07292 129.982 5.92969 130.133 5.82031C130.273 5.71615 130.466 5.61979 130.711 5.53125C130.924 5.45312 131.159 5.41406 131.414 5.41406C131.576 5.41406 131.75 5.42969 131.938 5.46094C132.089 5.48698 132.266 5.53646 132.469 5.60938L131.977 6.82031C131.857 6.76302 131.721 6.72396 131.57 6.70312C131.398 6.67708 131.26 6.66406 131.156 6.66406C130.917 6.66406 130.708 6.70312 130.531 6.78125C130.354 6.85938 130.193 6.95833 130.047 7.07812C129.901 7.19792 129.779 7.33073 129.68 7.47656C129.576 7.63281 129.492 7.77865 129.43 7.91406V13H128.086ZM133.797 3.88281C133.615 3.70052 133.523 3.48698 133.523 3.24219C133.523 2.9974 133.615 2.78385 133.797 2.60156C133.979 2.41927 134.193 2.32812 134.438 2.32812C134.682 2.32812 134.896 2.41927 135.078 2.60156C135.26 2.78385 135.352 2.9974 135.352 3.24219C135.352 3.48698 135.26 3.70052 135.078 3.88281C134.901 4.0599 134.688 4.14844 134.438 4.14844C134.188 4.14844 133.974 4.0599 133.797 3.88281ZM133.766 13V5.60938H135.109V13H133.766ZM136.891 9.30469C136.891 8.7474 136.982 8.23698 137.164 7.77344C137.352 7.29948 137.609 6.89062 137.938 6.54688C138.281 6.1875 138.661 5.91146 139.078 5.71875C139.516 5.51562 139.984 5.41406 140.484 5.41406C140.797 5.41406 141.081 5.45312 141.336 5.53125C141.612 5.61458 141.844 5.70833 142.031 5.8125C142.234 5.92708 142.419 6.0625 142.586 6.21875C142.753 6.375 142.88 6.52865 142.969 6.67969V5.60938H144.195V13.0312C144.195 13.6927 144.094 14.2526 143.891 14.7109C143.677 15.1901 143.398 15.5911 143.055 15.9141C142.711 16.2318 142.305 16.4714 141.836 16.6328C141.362 16.7943 140.875 16.875 140.375 16.875C139.62 16.875 138.966 16.7292 138.414 16.4375C137.872 16.151 137.427 15.8255 137.078 15.4609L137.898 14.4531C138.154 14.7552 138.477 15.0234 138.867 15.2578C139.279 15.5026 139.786 15.625 140.391 15.625C141.13 15.625 141.724 15.4115 142.172 14.9844C142.625 14.5521 142.852 13.9219 142.852 13.0938V12.0703C142.784 12.1641 142.69 12.2708 142.57 12.3906C142.451 12.5104 142.286 12.6328 142.078 12.7578C141.885 12.8724 141.654 12.974 141.383 13.0625C141.107 13.151 140.802 13.1953 140.469 13.1953C139.969 13.1953 139.5 13.0938 139.062 12.8906C138.641 12.6927 138.263 12.4167 137.93 12.0625C137.607 11.7135 137.352 11.3021 137.164 10.8281C136.982 10.3646 136.891 9.85677 136.891 9.30469ZM138.406 8.28125C138.292 8.59375 138.234 8.9349 138.234 9.30469C138.234 9.67448 138.292 10.0156 138.406 10.3281C138.521 10.651 138.685 10.9323 138.898 11.1719C139.102 11.401 139.354 11.5885 139.656 11.7344C139.953 11.875 140.289 11.9453 140.664 11.9453C140.93 11.9453 141.182 11.9036 141.422 11.8203C141.661 11.737 141.87 11.6406 142.047 11.5312C142.219 11.4219 142.378 11.2865 142.523 11.125C142.659 10.9688 142.768 10.8255 142.852 10.6953V7.91406C142.643 7.59635 142.362 7.3099 142.008 7.05469C141.643 6.79427 141.195 6.66406 140.664 6.66406C140.289 6.66406 139.953 6.73438 139.656 6.875C139.354 7.02083 139.102 7.20833 138.898 7.4375C138.685 7.67708 138.521 7.95833 138.406 8.28125ZM146.531 13V0.90625H147.875V6.50781C147.927 6.42969 148.013 6.32812 148.133 6.20312C148.268 6.05729 148.414 5.9375 148.57 5.84375C148.758 5.72917 148.969 5.63021 149.203 5.54688C149.453 5.45833 149.734 5.41406 150.047 5.41406C150.411 5.41406 150.763 5.47656 151.102 5.60156C151.44 5.72656 151.734 5.90625 151.984 6.14062C152.24 6.38021 152.445 6.67708 152.602 7.03125C152.758 7.38542 152.836 7.79167 152.836 8.25V13H151.492V8.46875C151.492 8.16667 151.443 7.89583 151.344 7.65625C151.25 7.42708 151.125 7.23958 150.969 7.09375C150.807 6.94271 150.628 6.83333 150.43 6.76562C150.227 6.69792 150.01 6.66406 149.781 6.66406C149.521 6.66406 149.299 6.70052 149.117 6.77344C148.904 6.85677 148.727 6.95573 148.586 7.07031C148.43 7.19531 148.294 7.33073 148.18 7.47656C148.07 7.61719 147.969 7.76302 147.875 7.91406V13H146.531ZM154.242 6.82031V5.60938H155.68V3.35156H157.031V5.60938H159.328V6.82031H157.031V10.8047C157.031 11.1745 157.12 11.4557 157.297 11.6484C157.479 11.8464 157.732 11.9453 158.055 11.9453C158.242 11.9453 158.401 11.9167 158.531 11.8594C158.667 11.7969 158.805 11.724 158.945 11.6406L159.445 12.7422C159.133 12.9193 158.852 13.0391 158.602 13.1016C158.357 13.1641 158.135 13.1953 157.938 13.1953C157.661 13.1953 157.391 13.1484 157.125 13.0547C156.844 12.9557 156.604 12.8177 156.406 12.6406C156.182 12.4427 156.008 12.2031 155.883 11.9219C155.747 11.6198 155.68 11.2708 155.68 10.875V6.82031H154.242ZM165.383 13V5.60938H166.633V6.74219C166.721 6.58073 166.836 6.41667 166.977 6.25C167.128 6.07292 167.279 5.92969 167.43 5.82031C167.57 5.71615 167.763 5.61979 168.008 5.53125C168.221 5.45312 168.456 5.41406 168.711 5.41406C168.872 5.41406 169.047 5.42969 169.234 5.46094C169.385 5.48698 169.562 5.53646 169.766 5.60938L169.273 6.82031C169.154 6.76302 169.018 6.72396 168.867 6.70312C168.695 6.67708 168.557 6.66406 168.453 6.66406C168.214 6.66406 168.005 6.70312 167.828 6.78125C167.651 6.85938 167.49 6.95833 167.344 7.07812C167.198 7.19792 167.076 7.33073 166.977 7.47656C166.872 7.63281 166.789 7.77865 166.727 7.91406V13H165.383ZM170.312 9.27344C170.312 8.72656 170.398 8.22917 170.57 7.78125C170.747 7.31771 170.997 6.90885 171.32 6.55469C171.648 6.19531 172.034 5.91667 172.477 5.71875C172.93 5.51562 173.435 5.41406 173.992 5.41406C174.508 5.41406 174.99 5.50781 175.438 5.69531C175.88 5.88281 176.26 6.14583 176.578 6.48438C176.906 6.83854 177.159 7.2526 177.336 7.72656C177.513 8.20573 177.602 8.7474 177.602 9.35156V9.5625C177.602 9.59375 177.596 9.66667 177.586 9.78125H171.617C171.643 10.0729 171.724 10.3438 171.859 10.5938C172.005 10.8594 172.188 11.0911 172.406 11.2891C172.63 11.487 172.891 11.6458 173.188 11.7656C173.49 11.8854 173.815 11.9453 174.164 11.9453C174.685 11.9453 175.13 11.8333 175.5 11.6094C175.891 11.375 176.188 11.125 176.391 10.8594L177.234 11.7344C177.073 11.9219 176.891 12.1016 176.688 12.2734C176.5 12.4297 176.266 12.5859 175.984 12.7422C175.729 12.8828 175.443 12.9922 175.125 13.0703C174.792 13.1536 174.456 13.1953 174.117 13.1953C173.576 13.1953 173.068 13.0964 172.594 12.8984C172.135 12.7109 171.734 12.4349 171.391 12.0703C171.057 11.7214 170.792 11.3047 170.594 10.8203C170.406 10.362 170.312 9.84635 170.312 9.27344ZM171.656 8.66406H176.289C176.284 8.46094 176.229 8.24219 176.125 8.00781C176.021 7.76823 175.878 7.54948 175.695 7.35156C175.508 7.14844 175.273 6.98438 174.992 6.85938C174.701 6.72917 174.367 6.66406 173.992 6.66406C173.596 6.66406 173.258 6.73438 172.977 6.875C172.68 7.02083 172.443 7.1875 172.266 7.375C172.083 7.5625 171.94 7.77865 171.836 8.02344C171.742 8.24219 171.682 8.45573 171.656 8.66406ZM178.656 11.6406L179.578 10.7734C179.661 10.8984 179.781 11.0391 179.938 11.1953C180.068 11.3255 180.237 11.4531 180.445 11.5781C180.633 11.6875 180.844 11.7839 181.078 11.8672C181.292 11.9401 181.544 11.9766 181.836 11.9766C182.008 11.9766 182.188 11.9609 182.375 11.9297C182.536 11.9036 182.706 11.8464 182.883 11.7578C183.034 11.6797 183.161 11.5781 183.266 11.4531C183.37 11.3229 183.422 11.1719 183.422 11C183.422 10.8333 183.37 10.6849 183.266 10.5547C183.161 10.4245 183.029 10.3177 182.867 10.2344C182.706 10.151 182.526 10.0807 182.328 10.0234C182.13 9.96615 181.935 9.91927 181.742 9.88281C181.523 9.83594 181.245 9.76042 180.906 9.65625C180.609 9.56771 180.318 9.4375 180.031 9.26562C179.76 9.10417 179.526 8.88802 179.328 8.61719C179.135 8.35677 179.039 8.03125 179.039 7.64062C179.039 7.33854 179.102 7.05208 179.227 6.78125C179.346 6.51562 179.531 6.27865 179.781 6.07031C180.016 5.8724 180.302 5.71354 180.641 5.59375C180.974 5.47396 181.346 5.41406 181.758 5.41406C182.388 5.41406 182.935 5.53125 183.398 5.76562C183.852 5.99479 184.216 6.2526 184.492 6.53906L183.617 7.44531C183.445 7.27344 183.193 7.09115 182.859 6.89844C182.552 6.72135 182.174 6.63281 181.727 6.63281C181.284 6.63281 180.943 6.73177 180.703 6.92969C180.469 7.1224 180.352 7.34375 180.352 7.59375C180.352 7.76562 180.401 7.90885 180.5 8.02344C180.609 8.14844 180.745 8.2474 180.906 8.32031C181.073 8.39844 181.266 8.46875 181.484 8.53125C181.552 8.55208 181.771 8.60677 182.141 8.69531C182.37 8.7474 182.661 8.82812 183.016 8.9375C183.312 9.02604 183.591 9.15885 183.852 9.33594C184.102 9.5026 184.315 9.71875 184.492 9.98438C184.664 10.2448 184.75 10.5677 184.75 10.9531C184.75 11.3385 184.664 11.6719 184.492 11.9531C184.315 12.2396 184.094 12.4714 183.828 12.6484C183.562 12.8255 183.25 12.9609 182.891 13.0547C182.536 13.1484 182.185 13.1953 181.836 13.1953C181.466 13.1953 181.117 13.1484 180.789 13.0547C180.451 12.9557 180.154 12.8359 179.898 12.6953C179.628 12.5443 179.388 12.3802 179.18 12.2031C178.977 12.0312 178.802 11.8438 178.656 11.6406ZM185.906 9.27344C185.906 8.72656 185.992 8.22917 186.164 7.78125C186.341 7.31771 186.591 6.90885 186.914 6.55469C187.242 6.19531 187.628 5.91667 188.07 5.71875C188.523 5.51562 189.029 5.41406 189.586 5.41406C190.102 5.41406 190.583 5.50781 191.031 5.69531C191.474 5.88281 191.854 6.14583 192.172 6.48438C192.5 6.83854 192.753 7.2526 192.93 7.72656C193.107 8.20573 193.195 8.7474 193.195 9.35156V9.5625C193.195 9.59375 193.19 9.66667 193.18 9.78125H187.211C187.237 10.0729 187.318 10.3438 187.453 10.5938C187.599 10.8594 187.781 11.0911 188 11.2891C188.224 11.487 188.484 11.6458 188.781 11.7656C189.083 11.8854 189.409 11.9453 189.758 11.9453C190.279 11.9453 190.724 11.8333 191.094 11.6094C191.484 11.375 191.781 11.125 191.984 10.8594L192.828 11.7344C192.667 11.9219 192.484 12.1016 192.281 12.2734C192.094 12.4297 191.859 12.5859 191.578 12.7422C191.323 12.8828 191.036 12.9922 190.719 13.0703C190.385 13.1536 190.049 13.1953 189.711 13.1953C189.169 13.1953 188.661 13.0964 188.188 12.8984C187.729 12.7109 187.328 12.4349 186.984 12.0703C186.651 11.7214 186.385 11.3047 186.188 10.8203C186 10.362 185.906 9.84635 185.906 9.27344ZM187.25 8.66406H191.883C191.878 8.46094 191.823 8.24219 191.719 8.00781C191.615 7.76823 191.471 7.54948 191.289 7.35156C191.102 7.14844 190.867 6.98438 190.586 6.85938C190.294 6.72917 189.961 6.66406 189.586 6.66406C189.19 6.66406 188.852 6.73438 188.57 6.875C188.273 7.02083 188.036 7.1875 187.859 7.375C187.677 7.5625 187.534 7.77865 187.43 8.02344C187.336 8.24219 187.276 8.45573 187.25 8.66406ZM194.727 13V5.60938H195.977V6.74219C196.065 6.58073 196.18 6.41667 196.32 6.25C196.471 6.07292 196.622 5.92969 196.773 5.82031C196.914 5.71615 197.107 5.61979 197.352 5.53125C197.565 5.45312 197.799 5.41406 198.055 5.41406C198.216 5.41406 198.391 5.42969 198.578 5.46094C198.729 5.48698 198.906 5.53646 199.109 5.60938L198.617 6.82031C198.497 6.76302 198.362 6.72396 198.211 6.70312C198.039 6.67708 197.901 6.66406 197.797 6.66406C197.557 6.66406 197.349 6.70312 197.172 6.78125C196.995 6.85938 196.833 6.95833 196.688 7.07812C196.542 7.19792 196.419 7.33073 196.32 7.47656C196.216 7.63281 196.133 7.77865 196.07 7.91406V13H194.727ZM199.234 5.60938H200.711L202.984 10.6172L205.25 5.60938H206.625L202.93 13.3203L199.234 5.60938ZM207.234 9.27344C207.234 8.72656 207.32 8.22917 207.492 7.78125C207.669 7.31771 207.919 6.90885 208.242 6.55469C208.57 6.19531 208.956 5.91667 209.398 5.71875C209.852 5.51562 210.357 5.41406 210.914 5.41406C211.43 5.41406 211.911 5.50781 212.359 5.69531C212.802 5.88281 213.182 6.14583 213.5 6.48438C213.828 6.83854 214.081 7.2526 214.258 7.72656C214.435 8.20573 214.523 8.7474 214.523 9.35156V9.5625C214.523 9.59375 214.518 9.66667 214.508 9.78125H208.539C208.565 10.0729 208.646 10.3438 208.781 10.5938C208.927 10.8594 209.109 11.0911 209.328 11.2891C209.552 11.487 209.812 11.6458 210.109 11.7656C210.411 11.8854 210.737 11.9453 211.086 11.9453C211.607 11.9453 212.052 11.8333 212.422 11.6094C212.812 11.375 213.109 11.125 213.312 10.8594L214.156 11.7344C213.995 11.9219 213.812 12.1016 213.609 12.2734C213.422 12.4297 213.188 12.5859 212.906 12.7422C212.651 12.8828 212.365 12.9922 212.047 13.0703C211.714 13.1536 211.378 13.1953 211.039 13.1953C210.497 13.1953 209.99 13.0964 209.516 12.8984C209.057 12.7109 208.656 12.4349 208.312 12.0703C207.979 11.7214 207.714 11.3047 207.516 10.8203C207.328 10.362 207.234 9.84635 207.234 9.27344ZM208.578 8.66406H213.211C213.206 8.46094 213.151 8.24219 213.047 8.00781C212.943 7.76823 212.799 7.54948 212.617 7.35156C212.43 7.14844 212.195 6.98438 211.914 6.85938C211.622 6.72917 211.289 6.66406 210.914 6.66406C210.518 6.66406 210.18 6.73438 209.898 6.875C209.602 7.02083 209.365 7.1875 209.188 7.375C209.005 7.5625 208.862 7.77865 208.758 8.02344C208.664 8.24219 208.604 8.45573 208.578 8.66406ZM215.547 9.30469C215.547 8.7474 215.638 8.23698 215.82 7.77344C216.003 7.30469 216.258 6.89583 216.586 6.54688C216.919 6.19271 217.297 5.91667 217.719 5.71875C218.156 5.51562 218.625 5.41406 219.125 5.41406C219.729 5.41406 220.229 5.53385 220.625 5.77344C221.016 6.00781 221.31 6.25781 221.508 6.52344V0.90625H222.852V13H221.625V11.9297C221.536 12.0807 221.409 12.2344 221.242 12.3906C221.091 12.5365 220.906 12.6693 220.688 12.7891C220.479 12.9036 220.247 13 219.992 13.0781C219.737 13.1562 219.453 13.1953 219.141 13.1953C218.641 13.1953 218.172 13.0938 217.734 12.8906C217.318 12.6979 216.938 12.4219 216.594 12.0625C216.266 11.7188 216.008 11.3073 215.82 10.8281C215.638 10.3646 215.547 9.85677 215.547 9.30469ZM217.062 8.28125C216.948 8.59375 216.891 8.9349 216.891 9.30469C216.891 9.67448 216.948 10.0156 217.062 10.3281C217.177 10.651 217.341 10.9323 217.555 11.1719C217.758 11.401 218.01 11.5885 218.312 11.7344C218.609 11.875 218.94 11.9453 219.305 11.9453C219.581 11.9453 219.839 11.9036 220.078 11.8203C220.328 11.737 220.536 11.638 220.703 11.5234C220.88 11.4089 221.039 11.2708 221.18 11.1094C221.31 10.9635 221.419 10.8151 221.508 10.6641V7.94531C221.299 7.61198 221.013 7.3125 220.648 7.04688C220.294 6.79167 219.852 6.66406 219.32 6.66406C218.956 6.66406 218.625 6.73438 218.328 6.875C218.016 7.02083 217.76 7.20833 217.562 7.4375C217.344 7.6875 217.177 7.96875 217.062 8.28125Z" fill="white"/>
</svg>
